<svg width="418" height="307" viewBox="0 0 418 307" fill="none" xmlns="http://www.w3.org/2000/svg">
<path d="M1.36 20V6H4.4L8.86 14.88L13.26 6H16.3V20H13.74V10.34L9.84 18H7.82L3.92 10.34V20H1.36ZM20.3363 8.54C19.8696 8.54 19.4829 8.4 19.1763 8.12C18.8829 7.84 18.7363 7.48667 18.7363 7.06C18.7363 6.63333 18.8829 6.28667 19.1763 6.02C19.4829 5.74 19.8696 5.6 20.3363 5.6C20.8029 5.6 21.1829 5.74 21.4763 6.02C21.7829 6.28667 21.9363 6.63333 21.9363 7.06C21.9363 7.48667 21.7829 7.84 21.4763 8.12C21.1829 8.4 20.8029 8.54 20.3363 8.54ZM19.0563 20V10.08H21.6163V20H19.0563ZM24.2883 20V5.6H26.8483V20H24.2883ZM34.2841 20.24C33.2841 20.24 32.3974 20.0267 31.6241 19.6C30.8507 19.1733 30.2441 18.5733 29.8041 17.8C29.3641 17.0267 29.1441 16.1333 29.1441 15.12C29.1441 14.0933 29.3574 13.18 29.7841 12.38C30.2241 11.58 30.8241 10.96 31.5841 10.52C32.3574 10.0667 33.2641 9.84 34.3041 9.84C35.2774 9.84 36.1374 10.0533 36.8841 10.48C37.6307 10.9067 38.2107 11.4933 38.6241 12.24C39.0507 12.9733 39.2641 13.7933 39.2641 14.7C39.2641 14.8467 39.2574 15 39.2441 15.16C39.2441 15.32 39.2374 15.4867 39.2241 15.66H31.6841C31.7374 16.4333 32.0041 17.04 32.4841 17.48C32.9774 17.92 33.5707 18.14 34.2641 18.14C34.7841 18.14 35.2174 18.0267 35.5641 17.8C35.9241 17.56 36.1907 17.2533 36.3641 16.88H38.9641C38.7774 17.5067 38.4641 18.08 38.0241 18.6C37.5974 19.1067 37.0641 19.5067 36.4241 19.8C35.7974 20.0933 35.0841 20.24 34.2841 20.24ZM34.3041 11.92C33.6774 11.92 33.1241 12.1 32.6441 12.46C32.1641 12.8067 31.8574 13.34 31.7241 14.06H36.6641C36.6241 13.4067 36.3841 12.8867 35.9441 12.5C35.5041 12.1133 34.9574 11.92 34.3041 11.92ZM45.5172 20.24C44.6372 20.24 43.8639 20.1 43.1972 19.82C42.5305 19.5267 41.9972 19.1267 41.5972 18.62C41.1972 18.1133 40.9572 17.5267 40.8772 16.86H43.4572C43.5372 17.2467 43.7505 17.58 44.0972 17.86C44.4572 18.1267 44.9172 18.26 45.4772 18.26C46.0372 18.26 46.4439 18.1467 46.6972 17.92C46.9639 17.6933 47.0972 17.4333 47.0972 17.14C47.0972 16.7133 46.9105 16.4267 46.5372 16.28C46.1639 16.12 45.6439 15.9667 44.9772 15.82C44.5505 15.7267 44.1172 15.6133 43.6772 15.48C43.2372 15.3467 42.8305 15.18 42.4572 14.98C42.0972 14.7667 41.8039 14.5 41.5772 14.18C41.3505 13.8467 41.2372 13.44 41.2372 12.96C41.2372 12.08 41.5839 11.34 42.2772 10.74C42.9839 10.14 43.9705 9.84 45.2372 9.84C46.4105 9.84 47.3439 10.1133 48.0372 10.66C48.7439 11.2067 49.1639 11.96 49.2972 12.92H46.8772C46.7305 12.1867 46.1772 11.82 45.2172 11.82C44.7372 11.82 44.3639 11.9133 44.0972 12.1C43.8439 12.2867 43.7172 12.52 43.7172 12.8C43.7172 13.0933 43.9105 13.3267 44.2972 13.5C44.6839 13.6733 45.1972 13.8333 45.8372 13.98C46.5305 14.14 47.1639 14.32 47.7372 14.52C48.3239 14.7067 48.7905 14.9933 49.1372 15.38C49.4839 15.7533 49.6572 16.2933 49.6572 17C49.6705 17.6133 49.5105 18.1667 49.1772 18.66C48.8439 19.1533 48.3639 19.54 47.7372 19.82C47.1105 20.1 46.3705 20.24 45.5172 20.24ZM61.3306 20.24C60.304 20.24 59.4106 20.0533 58.6506 19.68C57.8906 19.3067 57.304 18.7867 56.8906 18.12C56.4773 17.4533 56.2706 16.68 56.2706 15.8H58.0306C58.0306 16.3467 58.1573 16.8533 58.4106 17.32C58.664 17.7733 59.0306 18.14 59.5106 18.42C60.004 18.6867 60.6106 18.82 61.3306 18.82C62.2773 18.82 63.0106 18.5933 63.5306 18.14C64.0506 17.6867 64.3106 17.12 64.3106 16.44C64.3106 15.88 64.1906 15.4333 63.9506 15.1C63.7106 14.7533 63.384 14.4733 62.9706 14.26C62.5706 14.0467 62.104 13.86 61.5706 13.7C61.0506 13.54 60.504 13.36 59.9306 13.16C58.8506 12.7867 58.0506 12.3267 57.5306 11.78C57.0106 11.22 56.7506 10.4933 56.7506 9.6C56.7373 8.85333 56.9106 8.19333 57.2706 7.62C57.6306 7.03333 58.1373 6.58 58.7906 6.26C59.4573 5.92667 60.244 5.76 61.1506 5.76C62.044 5.76 62.8173 5.92667 63.4706 6.26C64.1373 6.59333 64.6506 7.05333 65.0106 7.64C65.384 8.22667 65.5773 8.89333 65.5906 9.64H63.8306C63.8306 9.25333 63.7306 8.87333 63.5306 8.5C63.3306 8.11333 63.024 7.8 62.6106 7.56C62.2106 7.32 61.704 7.2 61.0906 7.2C60.3306 7.18667 59.704 7.38 59.2106 7.78C58.7306 8.18 58.4906 8.73333 58.4906 9.44C58.4906 10.04 58.6573 10.5 58.9906 10.82C59.3373 11.14 59.8173 11.4067 60.4306 11.62C61.044 11.82 61.7506 12.0533 62.5506 12.32C63.2173 12.56 63.8173 12.84 64.3506 13.16C64.884 13.48 65.2973 13.8933 65.5906 14.4C65.8973 14.9067 66.0506 15.5533 66.0506 16.34C66.0506 17.0067 65.8773 17.64 65.5306 18.24C65.184 18.8267 64.6573 19.3067 63.9506 19.68C63.2573 20.0533 62.384 20.24 61.3306 20.24ZM72.2531 20C71.3465 20 70.6331 19.78 70.1131 19.34C69.5931 18.9 69.3331 18.1067 69.3331 16.96V11.5H67.6131V10.08H69.3331L69.5531 7.7H71.0131V10.08H73.9331V11.5H71.0131V16.96C71.0131 17.5867 71.1398 18.0133 71.3931 18.24C71.6465 18.4533 72.0931 18.56 72.7331 18.56H73.7731V20H72.2531ZM79.3675 20.24C78.5408 20.24 77.8542 20.1 77.3075 19.82C76.7608 19.54 76.3542 19.1667 76.0875 18.7C75.8208 18.2333 75.6875 17.7267 75.6875 17.18C75.6875 16.1667 76.0742 15.3867 76.8475 14.84C77.6208 14.2933 78.6742 14.02 80.0075 14.02H82.6875V13.9C82.6875 13.0333 82.4608 12.38 82.0075 11.94C81.5542 11.4867 80.9475 11.26 80.1875 11.26C79.5342 11.26 78.9675 11.4267 78.4875 11.76C78.0208 12.08 77.7275 12.5533 77.6075 13.18H75.8875C75.9542 12.46 76.1942 11.8533 76.6075 11.36C77.0342 10.8667 77.5608 10.4933 78.1875 10.24C78.8142 9.97333 79.4808 9.84 80.1875 9.84C81.5742 9.84 82.6142 10.2133 83.3075 10.96C84.0142 11.6933 84.3675 12.6733 84.3675 13.9V20H82.8675L82.7675 18.22C82.4875 18.78 82.0742 19.26 81.5275 19.66C80.9942 20.0467 80.2742 20.24 79.3675 20.24ZM79.6275 18.82C80.2675 18.82 80.8142 18.6533 81.2675 18.32C81.7342 17.9867 82.0875 17.5533 82.3275 17.02C82.5675 16.4867 82.6875 15.9267 82.6875 15.34V15.32H80.1475C79.1608 15.32 78.4608 15.4933 78.0475 15.84C77.6475 16.1733 77.4475 16.5933 77.4475 17.1C77.4475 17.62 77.6342 18.04 78.0075 18.36C78.3942 18.6667 78.9342 18.82 79.6275 18.82ZM90.5344 20C89.6277 20 88.9144 19.78 88.3944 19.34C87.8744 18.9 87.6144 18.1067 87.6144 16.96V11.5H85.8944V10.08H87.6144L87.8344 7.7H89.2944V10.08H92.2144V11.5H89.2944V16.96C89.2944 17.5867 89.421 18.0133 89.6744 18.24C89.9277 18.4533 90.3744 18.56 91.0144 18.56H92.0544V20H90.5344ZM95.3688 7.88C95.0354 7.88 94.7554 7.77333 94.5288 7.56C94.3154 7.33333 94.2088 7.05333 94.2088 6.72C94.2088 6.4 94.3154 6.13333 94.5288 5.92C94.7554 5.70667 95.0354 5.6 95.3688 5.6C95.6888 5.6 95.9621 5.70667 96.1888 5.92C96.4154 6.13333 96.5288 6.4 96.5288 6.72C96.5288 7.05333 96.4154 7.33333 96.1888 7.56C95.9621 7.77333 95.6888 7.88 95.3688 7.88ZM94.5288 20V10.08H96.2088V20H94.5288ZM102.934 20.24C101.747 20.24 100.761 19.94 99.9739 19.34C99.1872 18.74 98.7272 17.9267 98.5939 16.9H100.314C100.421 17.42 100.694 17.8733 101.134 18.26C101.587 18.6333 102.194 18.82 102.954 18.82C103.661 18.82 104.181 18.6733 104.514 18.38C104.847 18.0733 105.014 17.7133 105.014 17.3C105.014 16.7 104.794 16.3 104.354 16.1C103.927 15.9 103.321 15.72 102.534 15.56C102.001 15.4533 101.467 15.3 100.934 15.1C100.401 14.9 99.9539 14.62 99.5939 14.26C99.2339 13.8867 99.0539 13.4 99.0539 12.8C99.0539 11.9333 99.3739 11.2267 100.014 10.68C100.667 10.12 101.547 9.84 102.654 9.84C103.707 9.84 104.567 10.1067 105.234 10.64C105.914 11.16 106.307 11.9067 106.414 12.88H104.754C104.687 12.3733 104.467 11.98 104.094 11.7C103.734 11.4067 103.247 11.26 102.634 11.26C102.034 11.26 101.567 11.3867 101.234 11.64C100.914 11.8933 100.754 12.2267 100.754 12.64C100.754 13.04 100.961 13.3533 101.374 13.58C101.801 13.8067 102.374 14 103.094 14.16C103.707 14.2933 104.287 14.46 104.834 14.66C105.394 14.8467 105.847 15.1333 106.194 15.52C106.554 15.8933 106.734 16.44 106.734 17.16C106.747 18.0533 106.407 18.7933 105.714 19.38C105.034 19.9533 104.107 20.24 102.934 20.24ZM112.605 20C111.698 20 110.985 19.78 110.465 19.34C109.945 18.9 109.685 18.1067 109.685 16.96V11.5H107.965V10.08H109.685L109.905 7.7H111.365V10.08H114.285V11.5H111.365V16.96C111.365 17.5867 111.491 18.0133 111.745 18.24C111.998 18.4533 112.445 18.56 113.085 18.56H114.125V20H112.605ZM117.439 7.88C117.106 7.88 116.826 7.77333 116.599 7.56C116.386 7.33333 116.279 7.05333 116.279 6.72C116.279 6.4 116.386 6.13333 116.599 5.92C116.826 5.70667 117.106 5.6 117.439 5.6C117.759 5.6 118.032 5.70667 118.259 5.92C118.486 6.13333 118.599 6.4 118.599 6.72C118.599 7.05333 118.486 7.33333 118.259 7.56C118.032 7.77333 117.759 7.88 117.439 7.88ZM116.599 20V10.08H118.279V20H116.599ZM125.764 20.24C124.818 20.24 123.964 20.0267 123.204 19.6C122.458 19.16 121.864 18.5533 121.424 17.78C120.998 16.9933 120.784 16.08 120.784 15.04C120.784 14 120.998 13.0933 121.424 12.32C121.864 11.5333 122.458 10.9267 123.204 10.5C123.964 10.06 124.818 9.84 125.764 9.84C126.938 9.84 127.924 10.1467 128.724 10.76C129.538 11.3733 130.051 12.1933 130.264 13.22H128.544C128.411 12.6067 128.084 12.1333 127.564 11.8C127.044 11.4533 126.438 11.28 125.744 11.28C125.184 11.28 124.658 11.42 124.164 11.7C123.671 11.98 123.271 12.4 122.964 12.96C122.658 13.52 122.504 14.2133 122.504 15.04C122.504 15.8667 122.658 16.56 122.964 17.12C123.271 17.68 123.671 18.1067 124.164 18.4C124.658 18.68 125.184 18.82 125.744 18.82C126.438 18.82 127.044 18.6533 127.564 18.32C128.084 17.9733 128.411 17.4867 128.544 16.86H130.264C130.064 17.86 129.558 18.6733 128.744 19.3C127.931 19.9267 126.938 20.24 125.764 20.24ZM136.41 20.24C135.224 20.24 134.237 19.94 133.45 19.34C132.664 18.74 132.204 17.9267 132.07 16.9H133.79C133.897 17.42 134.17 17.8733 134.61 18.26C135.064 18.6333 135.67 18.82 136.43 18.82C137.137 18.82 137.657 18.6733 137.99 18.38C138.324 18.0733 138.49 17.7133 138.49 17.3C138.49 16.7 138.27 16.3 137.83 16.1C137.404 15.9 136.797 15.72 136.01 15.56C135.477 15.4533 134.944 15.3 134.41 15.1C133.877 14.9 133.43 14.62 133.07 14.26C132.71 13.8867 132.53 13.4 132.53 12.8C132.53 11.9333 132.85 11.2267 133.49 10.68C134.144 10.12 135.024 9.84 136.13 9.84C137.184 9.84 138.044 10.1067 138.71 10.64C139.39 11.16 139.784 11.9067 139.89 12.88H138.23C138.164 12.3733 137.944 11.98 137.57 11.7C137.21 11.4067 136.724 11.26 136.11 11.26C135.51 11.26 135.044 11.3867 134.71 11.64C134.39 11.8933 134.23 12.2267 134.23 12.64C134.23 13.04 134.437 13.3533 134.85 13.58C135.277 13.8067 135.85 14 136.57 14.16C137.184 14.2933 137.764 14.46 138.31 14.66C138.87 14.8467 139.324 15.1333 139.67 15.52C140.03 15.8933 140.21 16.44 140.21 17.16C140.224 18.0533 139.884 18.7933 139.19 19.38C138.51 19.9533 137.584 20.24 136.41 20.24Z" fill="white"/>
<rect y="50" width="43" height="20" rx="10" fill="#2884FF"/>
<path d="M12.68 63.5V56.5H15.07C15.89 56.5 16.5633 56.6467 17.09 56.94C17.6233 57.2267 18.0167 57.6333 18.27 58.16C18.53 58.68 18.66 59.2933 18.66 60C18.66 60.7067 18.53 61.3233 18.27 61.85C18.0167 62.37 17.6233 62.7767 17.09 63.07C16.5633 63.3567 15.89 63.5 15.07 63.5H12.68ZM13.96 62.4H15.01C15.5967 62.4 16.06 62.3067 16.4 62.12C16.74 61.9267 16.9833 61.6533 17.13 61.3C17.2767 60.94 17.35 60.5067 17.35 60C17.35 59.5 17.2767 59.07 17.13 58.71C16.9833 58.35 16.74 58.0733 16.4 57.88C16.06 57.6867 15.5967 57.59 15.01 57.59H13.96V62.4ZM21.4694 63.62C21.0427 63.62 20.6927 63.5533 20.4194 63.42C20.146 63.28 19.9427 63.0967 19.8094 62.87C19.676 62.6433 19.6094 62.3933 19.6094 62.12C19.6094 61.66 19.7894 61.2867 20.1494 61C20.5094 60.7133 21.0494 60.57 21.7694 60.57H23.0294V60.45C23.0294 60.11 22.9327 59.86 22.7394 59.7C22.546 59.54 22.306 59.46 22.0194 59.46C21.7594 59.46 21.5327 59.5233 21.3394 59.65C21.146 59.77 21.026 59.95 20.9794 60.19H19.7294C19.7627 59.83 19.8827 59.5167 20.0894 59.25C20.3027 58.9833 20.576 58.78 20.9094 58.64C21.2427 58.4933 21.616 58.42 22.0294 58.42C22.736 58.42 23.2927 58.5967 23.6994 58.95C24.106 59.3033 24.3094 59.8033 24.3094 60.45V63.5H23.2194L23.0994 62.7C22.9527 62.9667 22.746 63.1867 22.4794 63.36C22.2194 63.5333 21.8827 63.62 21.4694 63.62ZM21.7594 62.62C22.126 62.62 22.4094 62.5 22.6094 62.26C22.816 62.02 22.946 61.7233 22.9994 61.37H21.9094C21.5694 61.37 21.326 61.4333 21.1794 61.56C21.0327 61.68 20.9594 61.83 20.9594 62.01C20.9594 62.2033 21.0327 62.3533 21.1794 62.46C21.326 62.5667 21.5194 62.62 21.7594 62.62ZM25.9848 65.7L27.1348 63.17H26.8348L24.9048 58.54H26.2948L27.6848 62.03L29.1348 58.54H30.4948L27.3448 65.7H25.9848Z" fill="white"/>
<path d="M67.1 63.5L65.25 56.5H66.62L67.88 62.07L69.36 56.5H70.77L72.21 62.07L73.47 56.5H74.85L72.95 63.5H71.43L70.04 58.31L68.61 63.5H67.1ZM77.6303 63.62C77.1303 63.62 76.687 63.5133 76.3003 63.3C75.9136 63.0867 75.6103 62.7867 75.3903 62.4C75.1703 62.0133 75.0603 61.5667 75.0603 61.06C75.0603 60.5467 75.167 60.09 75.3803 59.69C75.6003 59.29 75.9003 58.98 76.2803 58.76C76.667 58.5333 77.1203 58.42 77.6403 58.42C78.127 58.42 78.557 58.5267 78.9303 58.74C79.3036 58.9533 79.5936 59.2467 79.8003 59.62C80.0136 59.9867 80.1203 60.3967 80.1203 60.85C80.1203 60.9233 80.117 61 80.1103 61.08C80.1103 61.16 80.107 61.2433 80.1003 61.33H76.3303C76.357 61.7167 76.4903 62.02 76.7303 62.24C76.977 62.46 77.2736 62.57 77.6203 62.57C77.8803 62.57 78.097 62.5133 78.2703 62.4C78.4503 62.28 78.5836 62.1267 78.6703 61.94H79.9703C79.877 62.2533 79.7203 62.54 79.5003 62.8C79.287 63.0533 79.0203 63.2533 78.7003 63.4C78.387 63.5467 78.0303 63.62 77.6303 63.62ZM77.6403 59.46C77.327 59.46 77.0503 59.55 76.8103 59.73C76.5703 59.9033 76.417 60.17 76.3503 60.53H78.8203C78.8003 60.2033 78.6803 59.9433 78.4603 59.75C78.2403 59.5567 77.967 59.46 77.6403 59.46ZM83.6069 63.62C83.1069 63.62 82.6635 63.5133 82.2769 63.3C81.8902 63.0867 81.5869 62.7867 81.3669 62.4C81.1469 62.0133 81.0369 61.5667 81.0369 61.06C81.0369 60.5467 81.1435 60.09 81.3569 59.69C81.5769 59.29 81.8769 58.98 82.2569 58.76C82.6435 58.5333 83.0969 58.42 83.6169 58.42C84.1035 58.42 84.5335 58.5267 84.9069 58.74C85.2802 58.9533 85.5702 59.2467 85.7769 59.62C85.9902 59.9867 86.0969 60.3967 86.0969 60.85C86.0969 60.9233 86.0935 61 86.0869 61.08C86.0869 61.16 86.0835 61.2433 86.0769 61.33H82.3069C82.3335 61.7167 82.4669 62.02 82.7069 62.24C82.9535 62.46 83.2502 62.57 83.5969 62.57C83.8569 62.57 84.0735 62.5133 84.2469 62.4C84.4269 62.28 84.5602 62.1267 84.6469 61.94H85.9469C85.8535 62.2533 85.6969 62.54 85.4769 62.8C85.2635 63.0533 84.9969 63.2533 84.6769 63.4C84.3635 63.5467 84.0069 63.62 83.6069 63.62ZM83.6169 59.46C83.3035 59.46 83.0269 59.55 82.7869 59.73C82.5469 59.9033 82.3935 60.17 82.3269 60.53H84.7969C84.7769 60.2033 84.6569 59.9433 84.4369 59.75C84.2169 59.5567 83.9435 59.46 83.6169 59.46ZM87.1734 63.5V56.3H88.4534V60.55L90.2134 58.54H91.7334L89.7034 60.8L92.0634 63.5H90.4634L88.4534 61.01V63.5H87.1734Z" fill="#808191"/>
<path d="M129.68 63.5V56.5H131.2L133.43 60.94L135.63 56.5H137.15V63.5H135.87V58.67L133.92 62.5H132.91L130.96 58.67V63.5H129.68ZM140.858 63.62C140.378 63.62 139.945 63.51 139.558 63.29C139.178 63.07 138.875 62.7667 138.648 62.38C138.428 61.9867 138.318 61.5333 138.318 61.02C138.318 60.5067 138.431 60.0567 138.658 59.67C138.885 59.2767 139.188 58.97 139.568 58.75C139.955 58.53 140.388 58.42 140.868 58.42C141.341 58.42 141.768 58.53 142.148 58.75C142.535 58.97 142.838 59.2767 143.058 59.67C143.285 60.0567 143.398 60.5067 143.398 61.02C143.398 61.5333 143.285 61.9867 143.058 62.38C142.838 62.7667 142.535 63.07 142.148 63.29C141.761 63.51 141.331 63.62 140.858 63.62ZM140.858 62.51C141.191 62.51 141.481 62.3867 141.728 62.14C141.975 61.8867 142.098 61.5133 142.098 61.02C142.098 60.5267 141.975 60.1567 141.728 59.91C141.481 59.6567 141.195 59.53 140.868 59.53C140.528 59.53 140.235 59.6567 139.988 59.91C139.748 60.1567 139.628 60.5267 139.628 61.02C139.628 61.5133 139.748 61.8867 139.988 62.14C140.235 62.3867 140.525 62.51 140.858 62.51ZM144.543 63.5V58.54H145.673L145.773 59.38C145.926 59.0867 146.146 58.8533 146.433 58.68C146.726 58.5067 147.069 58.42 147.463 58.42C148.076 58.42 148.553 58.6133 148.893 59C149.233 59.3867 149.403 59.9533 149.403 60.7V63.5H148.123V60.82C148.123 60.3933 148.036 60.0667 147.863 59.84C147.689 59.6133 147.419 59.5 147.053 59.5C146.693 59.5 146.396 59.6267 146.163 59.88C145.936 60.1333 145.823 60.4867 145.823 60.94V63.5H144.543ZM152.837 63.5C152.317 63.5 151.9 63.3733 151.587 63.12C151.273 62.8667 151.117 62.4167 151.117 61.77V59.61H150.267V58.54H151.117L151.267 57.21H152.397V58.54H153.737V59.61H152.397V61.78C152.397 62.02 152.447 62.1867 152.547 62.28C152.653 62.3667 152.833 62.41 153.087 62.41H153.707V63.5H152.837ZM154.836 63.5V56.3H156.116V59.3C156.282 59.0267 156.506 58.8133 156.786 58.66C157.072 58.5 157.399 58.42 157.766 58.42C158.379 58.42 158.852 58.6133 159.186 59C159.526 59.3867 159.696 59.9533 159.696 60.7V63.5H158.426V60.82C158.426 60.3933 158.339 60.0667 158.166 59.84C157.999 59.6133 157.732 59.5 157.366 59.5C157.006 59.5 156.706 59.6267 156.466 59.88C156.232 60.1333 156.116 60.4867 156.116 60.94V63.5H154.836Z" fill="#808191"/>
<path d="M353.714 65V63.698C354.311 63.2033 354.89 62.7133 355.45 62.228C356.019 61.7427 356.523 61.262 356.962 60.786C357.41 60.31 357.765 59.848 358.026 59.4C358.297 58.9427 358.432 58.4993 358.432 58.07C358.432 57.6687 358.32 57.314 358.096 57.006C357.881 56.698 357.522 56.544 357.018 56.544C356.505 56.544 356.117 56.712 355.856 57.048C355.595 57.384 355.464 57.79 355.464 58.266H353.728C353.747 57.5473 353.905 56.95 354.204 56.474C354.503 55.9887 354.899 55.6293 355.394 55.396C355.889 55.1533 356.444 55.032 357.06 55.032C358.059 55.032 358.833 55.3073 359.384 55.858C359.944 56.3993 360.224 57.104 360.224 57.972C360.224 58.5133 360.098 59.0407 359.846 59.554C359.603 60.0673 359.281 60.562 358.88 61.038C358.479 61.514 358.045 61.962 357.578 62.382C357.111 62.7927 356.659 63.1753 356.22 63.53H360.462V65H353.714ZM365.464 65.168C364.745 65.168 364.125 65.042 363.602 64.79C363.089 64.538 362.683 64.1927 362.384 63.754C362.095 63.306 361.927 62.802 361.88 62.242H363.63C363.714 62.6433 363.919 62.9793 364.246 63.25C364.573 63.5113 364.979 63.642 365.464 63.642C365.987 63.642 366.411 63.4507 366.738 63.068C367.074 62.6853 367.242 62.2093 367.242 61.64C367.242 61.052 367.074 60.5853 366.738 60.24C366.411 59.8947 365.996 59.722 365.492 59.722C365.072 59.722 364.708 59.8247 364.4 60.03C364.092 60.2353 363.873 60.492 363.742 60.8H362.02L362.86 55.2H368.292V56.768H364.204L363.756 59.036C363.961 58.812 364.241 58.63 364.596 58.49C364.951 58.3407 365.347 58.266 365.786 58.266C366.486 58.266 367.069 58.4247 367.536 58.742C368.003 59.05 368.357 59.4607 368.6 59.974C368.843 60.478 368.964 61.0287 368.964 61.626C368.964 62.3073 368.815 62.914 368.516 63.446C368.227 63.978 367.816 64.398 367.284 64.706C366.761 65.014 366.155 65.168 365.464 65.168ZM374.314 65.168C373.576 65.168 372.956 65.0327 372.452 64.762C371.948 64.4913 371.542 64.1273 371.234 63.67C370.926 63.2127 370.702 62.704 370.562 62.144C370.431 61.584 370.366 61.01 370.366 60.422C370.366 59.33 370.52 58.3827 370.828 57.58C371.136 56.768 371.579 56.1427 372.158 55.704C372.736 55.256 373.436 55.032 374.258 55.032C374.93 55.032 375.499 55.1673 375.966 55.438C376.442 55.6993 376.81 56.0447 377.072 56.474C377.333 56.9033 377.487 57.3653 377.534 57.86H375.868C375.784 57.4307 375.602 57.0993 375.322 56.866C375.042 56.6327 374.682 56.516 374.244 56.516C373.618 56.516 373.114 56.8053 372.732 57.384C372.349 57.9533 372.144 58.826 372.116 60.002C372.34 59.6193 372.676 59.302 373.124 59.05C373.572 58.798 374.071 58.672 374.622 58.672C375.163 58.672 375.672 58.8027 376.148 59.064C376.624 59.3253 377.006 59.694 377.296 60.17C377.594 60.646 377.744 61.206 377.744 61.85C377.744 62.438 377.599 62.984 377.31 63.488C377.03 63.992 376.628 64.398 376.106 64.706C375.592 65.014 374.995 65.168 374.314 65.168ZM374.216 63.628C374.738 63.628 375.168 63.4693 375.504 63.152C375.849 62.8253 376.022 62.4147 376.022 61.92C376.022 61.3973 375.849 60.9773 375.504 60.66C375.158 60.3427 374.72 60.184 374.188 60.184C373.842 60.184 373.53 60.2633 373.25 60.422C372.979 60.5713 372.764 60.7767 372.606 61.038C372.447 61.29 372.368 61.5747 372.368 61.892C372.368 62.396 372.54 62.8113 372.886 63.138C373.24 63.4647 373.684 63.628 374.216 63.628ZM382.841 65V55.2H384.969L388.091 61.416L391.171 55.2H393.299V65H391.507V58.238L388.777 63.6H387.363L384.633 58.238V65H382.841ZM396.124 56.978C395.797 56.978 395.527 56.88 395.312 56.684C395.107 56.488 395.004 56.2407 395.004 55.942C395.004 55.6433 395.107 55.4007 395.312 55.214C395.527 55.018 395.797 54.92 396.124 54.92C396.451 54.92 396.717 55.018 396.922 55.214C397.137 55.4007 397.244 55.6433 397.244 55.942C397.244 56.2407 397.137 56.488 396.922 56.684C396.717 56.88 396.451 56.978 396.124 56.978ZM395.228 65V58.056H397.02V65H395.228ZM398.89 65V54.92H400.682V65H398.89ZM405.888 65.168C405.188 65.168 404.567 65.0187 404.026 64.72C403.484 64.4213 403.06 64.0013 402.752 63.46C402.444 62.9187 402.29 62.2933 402.29 61.584C402.29 60.8653 402.439 60.226 402.738 59.666C403.046 59.106 403.466 58.672 403.998 58.364C404.539 58.0467 405.174 57.888 405.902 57.888C406.583 57.888 407.185 58.0373 407.708 58.336C408.23 58.6347 408.636 59.0453 408.926 59.568C409.224 60.0813 409.374 60.6553 409.374 61.29C409.374 61.3927 409.369 61.5 409.36 61.612C409.36 61.724 409.355 61.8407 409.346 61.962H404.068C404.105 62.5033 404.292 62.928 404.628 63.236C404.973 63.544 405.388 63.698 405.874 63.698C406.238 63.698 406.541 63.6187 406.784 63.46C407.036 63.292 407.222 63.0773 407.344 62.816H409.164C409.033 63.2547 408.814 63.656 408.506 64.02C408.207 64.3747 407.834 64.6547 407.386 64.86C406.947 65.0653 406.448 65.168 405.888 65.168ZM405.902 59.344C405.463 59.344 405.076 59.47 404.74 59.722C404.404 59.9647 404.189 60.338 404.096 60.842H407.554C407.526 60.3847 407.358 60.0207 407.05 59.75C406.742 59.4793 406.359 59.344 405.902 59.344ZM413.751 65.168C413.135 65.168 412.593 65.07 412.127 64.874C411.66 64.6687 411.287 64.3887 411.007 64.034C410.727 63.6793 410.559 63.2687 410.503 62.802H412.309C412.365 63.0727 412.514 63.306 412.757 63.502C413.009 63.6887 413.331 63.782 413.723 63.782C414.115 63.782 414.399 63.7027 414.577 63.544C414.763 63.3853 414.857 63.2033 414.857 62.998C414.857 62.6993 414.726 62.4987 414.465 62.396C414.203 62.284 413.839 62.1767 413.373 62.074C413.074 62.0087 412.771 61.9293 412.463 61.836C412.155 61.7427 411.87 61.626 411.609 61.486C411.357 61.3367 411.151 61.15 410.993 60.926C410.834 60.6927 410.755 60.408 410.755 60.072C410.755 59.456 410.997 58.938 411.483 58.518C411.977 58.098 412.668 57.888 413.555 57.888C414.376 57.888 415.029 58.0793 415.515 58.462C416.009 58.8447 416.303 59.372 416.397 60.044H414.703C414.6 59.5307 414.213 59.274 413.541 59.274C413.205 59.274 412.943 59.3393 412.757 59.47C412.579 59.6007 412.491 59.764 412.491 59.96C412.491 60.1653 412.626 60.3287 412.897 60.45C413.167 60.5713 413.527 60.6833 413.975 60.786C414.46 60.898 414.903 61.024 415.305 61.164C415.715 61.2947 416.042 61.4953 416.285 61.766C416.527 62.0273 416.649 62.4053 416.649 62.9C416.658 63.3293 416.546 63.7167 416.313 64.062C416.079 64.4073 415.743 64.678 415.305 64.874C414.866 65.07 414.348 65.168 413.751 65.168Z" fill="#BFC3C9"/>
<rect y="119" width="28" height="163" fill="#1F2128"/>
<rect x="46" y="84" width="1" height="198" fill="#282C2F"/>
<rect x="65" y="158" width="28" height="124" fill="#1F2128"/>
<rect x="111" y="84" width="1" height="198" fill="#282C2F"/>
<rect x="130" y="97" width="28" height="185" fill="#2884FF"/>
<rect x="176" y="84" width="1" height="198" fill="#282C2F"/>
<rect x="195" y="175" width="28" height="107" fill="#1F2128"/>
<rect x="241" y="84" width="1" height="198" fill="#282C2F"/>
<rect x="260" y="119" width="28" height="163" fill="#1F2128"/>
<rect x="306" y="84" width="1" height="198" fill="#282C2F"/>
<rect x="325" y="204" width="28" height="78" fill="#1F2128"/>
<rect x="371" y="84" width="1" height="198" fill="#282C2F"/>
<rect x="390" y="148" width="28" height="134" fill="#1F2128"/>
<path d="M2.002 303V294.516L0.42 294.866V294.054L2.394 293.2H3.192V303H2.002ZM8.96569 303V293.2H12.1857C12.951 293.2 13.581 293.326 14.0757 293.578C14.5704 293.83 14.9344 294.171 15.1677 294.6C15.4104 295.029 15.5317 295.515 15.5317 296.056C15.5317 296.588 15.415 297.069 15.1817 297.498C14.9484 297.927 14.5844 298.273 14.0897 298.534C13.595 298.786 12.9604 298.912 12.1857 298.912H10.1417V303H8.96569ZM10.1417 297.918H12.1577C12.9417 297.918 13.497 297.755 13.8237 297.428C14.1597 297.092 14.3277 296.635 14.3277 296.056C14.3277 295.468 14.1597 295.011 13.8237 294.684C13.497 294.348 12.9417 294.18 12.1577 294.18H10.1417V297.918ZM17.0731 303V293.2H18.4451L21.9731 300.032L25.4731 293.2H26.8591V303H25.6831V295.3L22.4071 301.6H21.5251L18.2491 295.314V303H17.0731Z" fill="#7C7C8D"/>
<path d="M61.382 303V302.174C62.0447 301.651 62.67 301.124 63.258 300.592C63.8553 300.051 64.3827 299.519 64.84 298.996C65.3067 298.473 65.6707 297.96 65.932 297.456C66.2027 296.952 66.338 296.467 66.338 296C66.338 295.655 66.2773 295.333 66.156 295.034C66.044 294.735 65.8573 294.497 65.596 294.32C65.3347 294.133 64.98 294.04 64.532 294.04C64.1027 294.04 63.7433 294.138 63.454 294.334C63.1647 294.521 62.9453 294.773 62.796 295.09C62.656 295.407 62.586 295.748 62.586 296.112H61.452C61.452 295.468 61.5873 294.917 61.858 294.46C62.1287 293.993 62.4973 293.639 62.964 293.396C63.4307 293.153 63.958 293.032 64.546 293.032C65.414 293.032 66.1233 293.279 66.674 293.774C67.234 294.259 67.514 294.987 67.514 295.958C67.514 296.537 67.3693 297.111 67.08 297.68C66.7907 298.24 66.422 298.786 65.974 299.318C65.526 299.841 65.0453 300.331 64.532 300.788C64.028 301.245 63.5567 301.656 63.118 302.02H67.85V303H61.382ZM73.2528 303V293.2H76.4728C77.2381 293.2 77.8681 293.326 78.3628 293.578C78.8575 293.83 79.2215 294.171 79.4548 294.6C79.6975 295.029 79.8188 295.515 79.8188 296.056C79.8188 296.588 79.7021 297.069 79.4688 297.498C79.2355 297.927 78.8715 298.273 78.3768 298.534C77.8821 298.786 77.2475 298.912 76.4728 298.912H74.4288V303H73.2528ZM74.4288 297.918H76.4448C77.2288 297.918 77.7841 297.755 78.1108 297.428C78.4468 297.092 78.6148 296.635 78.6148 296.056C78.6148 295.468 78.4468 295.011 78.1108 294.684C77.7841 294.348 77.2288 294.18 76.4448 294.18H74.4288V297.918ZM81.3602 303V293.2H82.7322L86.2602 300.032L89.7602 293.2H91.1462V303H89.9702V295.3L86.6942 301.6H85.8122L82.5362 295.314V303H81.3602Z" fill="#7C7C8D"/>
<path d="M129.088 303.168C128.463 303.168 127.898 303.056 127.394 302.832C126.89 302.599 126.484 302.253 126.176 301.796C125.877 301.339 125.719 300.769 125.7 300.088H126.89C126.899 300.648 127.095 301.133 127.478 301.544C127.861 301.945 128.397 302.146 129.088 302.146C129.779 302.146 130.297 301.955 130.642 301.572C130.997 301.189 131.174 300.727 131.174 300.186C131.174 299.729 131.062 299.355 130.838 299.066C130.623 298.777 130.329 298.562 129.956 298.422C129.592 298.282 129.191 298.212 128.752 298.212H128.024V297.218H128.752C129.387 297.218 129.881 297.073 130.236 296.784C130.6 296.495 130.782 296.089 130.782 295.566C130.782 295.127 130.637 294.768 130.348 294.488C130.068 294.199 129.648 294.054 129.088 294.054C128.547 294.054 128.113 294.217 127.786 294.544C127.459 294.861 127.277 295.263 127.24 295.748H126.05C126.078 295.216 126.218 294.745 126.47 294.334C126.731 293.923 127.086 293.606 127.534 293.382C127.982 293.149 128.5 293.032 129.088 293.032C129.723 293.032 130.25 293.144 130.67 293.368C131.099 293.592 131.421 293.891 131.636 294.264C131.86 294.637 131.972 295.048 131.972 295.496C131.972 295.991 131.837 296.443 131.566 296.854C131.295 297.255 130.889 297.526 130.348 297.666C130.927 297.787 131.407 298.063 131.79 298.492C132.173 298.921 132.364 299.486 132.364 300.186C132.364 300.727 132.238 301.227 131.986 301.684C131.743 302.132 131.379 302.491 130.894 302.762C130.409 303.033 129.807 303.168 129.088 303.168ZM137.972 303V293.2H141.192C141.957 293.2 142.587 293.326 143.082 293.578C143.576 293.83 143.94 294.171 144.174 294.6C144.416 295.029 144.538 295.515 144.538 296.056C144.538 296.588 144.421 297.069 144.188 297.498C143.954 297.927 143.59 298.273 143.096 298.534C142.601 298.786 141.966 298.912 141.192 298.912H139.148V303H137.972ZM139.148 297.918H141.164C141.948 297.918 142.503 297.755 142.83 297.428C143.166 297.092 143.334 296.635 143.334 296.056C143.334 295.468 143.166 295.011 142.83 294.684C142.503 294.348 141.948 294.18 141.164 294.18H139.148V297.918ZM146.079 303V293.2H147.451L150.979 300.032L154.479 293.2H155.865V303H154.689V295.3L151.413 301.6H150.531L147.255 295.314V303H146.079Z" fill="#7C7C8D"/>
<path d="M194.974 303V300.9H190.004V299.99L194.764 293.2H196.136V299.864H197.592V300.9H196.136V303H194.974ZM191.306 299.864H195.03V294.502L191.306 299.864ZM202.718 303V293.2H205.938C206.703 293.2 207.333 293.326 207.828 293.578C208.322 293.83 208.686 294.171 208.92 294.6C209.162 295.029 209.284 295.515 209.284 296.056C209.284 296.588 209.167 297.069 208.934 297.498C208.7 297.927 208.336 298.273 207.842 298.534C207.347 298.786 206.712 298.912 205.938 298.912H203.894V303H202.718ZM203.894 297.918H205.91C206.694 297.918 207.249 297.755 207.576 297.428C207.912 297.092 208.08 296.635 208.08 296.056C208.08 295.468 207.912 295.011 207.576 294.684C207.249 294.348 206.694 294.18 205.91 294.18H203.894V297.918ZM210.825 303V293.2H212.197L215.725 300.032L219.225 293.2H220.611V303H219.435V295.3L216.159 301.6H215.277L212.001 295.314V303H210.825Z" fill="#7C7C8D"/>
<path d="M259.368 303.168C258.696 303.168 258.113 303.047 257.618 302.804C257.123 302.561 256.727 302.23 256.428 301.81C256.139 301.381 255.961 300.895 255.896 300.354H257.044C257.156 300.895 257.417 301.334 257.828 301.67C258.239 301.997 258.757 302.16 259.382 302.16C259.849 302.16 260.25 302.053 260.586 301.838C260.922 301.614 261.179 301.315 261.356 300.942C261.543 300.569 261.636 300.153 261.636 299.696C261.636 298.968 261.431 298.38 261.02 297.932C260.609 297.484 260.077 297.26 259.424 297.26C258.883 297.26 258.421 297.381 258.038 297.624C257.655 297.867 257.375 298.184 257.198 298.576H256.078L256.918 293.2H262.056V294.222H257.828L257.254 297.204C257.478 296.933 257.786 296.709 258.178 296.532C258.579 296.355 259.037 296.266 259.55 296.266C260.194 296.266 260.754 296.415 261.23 296.714C261.715 297.013 262.093 297.419 262.364 297.932C262.635 298.445 262.77 299.029 262.77 299.682C262.77 300.307 262.635 300.886 262.364 301.418C262.103 301.95 261.715 302.375 261.202 302.692C260.698 303.009 260.087 303.168 259.368 303.168ZM268.313 303V293.2H271.533C272.299 293.2 272.929 293.326 273.423 293.578C273.918 293.83 274.282 294.171 274.515 294.6C274.758 295.029 274.879 295.515 274.879 296.056C274.879 296.588 274.763 297.069 274.529 297.498C274.296 297.927 273.932 298.273 273.437 298.534C272.943 298.786 272.308 298.912 271.533 298.912H269.489V303H268.313ZM269.489 297.918H271.505C272.289 297.918 272.845 297.755 273.171 297.428C273.507 297.092 273.675 296.635 273.675 296.056C273.675 295.468 273.507 295.011 273.171 294.684C272.845 294.348 272.289 294.18 271.505 294.18H269.489V297.918ZM276.421 303V293.2H277.793L281.321 300.032L284.821 293.2H286.207V303H285.031V295.3L281.755 301.6H280.873L277.597 295.314V303H276.421Z" fill="#7C7C8D"/>
<path d="M325.064 303.168C324.355 303.168 323.757 303.037 323.272 302.776C322.787 302.505 322.395 302.146 322.096 301.698C321.807 301.25 321.592 300.751 321.452 300.2C321.321 299.64 321.256 299.071 321.256 298.492C321.256 297.409 321.405 296.462 321.704 295.65C322.003 294.829 322.432 294.189 322.992 293.732C323.561 293.265 324.247 293.032 325.05 293.032C325.666 293.032 326.193 293.153 326.632 293.396C327.071 293.639 327.416 293.965 327.668 294.376C327.929 294.777 328.093 295.225 328.158 295.72H327.066C326.963 295.188 326.735 294.777 326.38 294.488C326.025 294.199 325.577 294.054 325.036 294.054C324.299 294.054 323.678 294.404 323.174 295.104C322.679 295.795 322.413 296.877 322.376 298.352C322.6 297.913 322.955 297.535 323.44 297.218C323.935 296.891 324.527 296.728 325.218 296.728C325.778 296.728 326.301 296.859 326.786 297.12C327.281 297.381 327.682 297.75 327.99 298.226C328.298 298.693 328.452 299.243 328.452 299.878C328.452 300.429 328.317 300.956 328.046 301.46C327.775 301.964 327.383 302.375 326.87 302.692C326.366 303.009 325.764 303.168 325.064 303.168ZM324.98 302.132C325.419 302.132 325.811 302.039 326.156 301.852C326.501 301.665 326.772 301.409 326.968 301.082C327.164 300.746 327.262 300.363 327.262 299.934C327.262 299.271 327.043 298.744 326.604 298.352C326.175 297.951 325.633 297.75 324.98 297.75C324.541 297.75 324.149 297.853 323.804 298.058C323.459 298.254 323.183 298.52 322.978 298.856C322.782 299.192 322.684 299.556 322.684 299.948C322.684 300.368 322.782 300.746 322.978 301.082C323.183 301.409 323.459 301.665 323.804 301.852C324.149 302.039 324.541 302.132 324.98 302.132ZM334.059 303V293.2H337.279C338.045 293.2 338.675 293.326 339.169 293.578C339.664 293.83 340.028 294.171 340.261 294.6C340.504 295.029 340.625 295.515 340.625 296.056C340.625 296.588 340.509 297.069 340.275 297.498C340.042 297.927 339.678 298.273 339.183 298.534C338.689 298.786 338.054 298.912 337.279 298.912H335.235V303H334.059ZM335.235 297.918H337.251C338.035 297.918 338.591 297.755 338.917 297.428C339.253 297.092 339.421 296.635 339.421 296.056C339.421 295.468 339.253 295.011 338.917 294.684C338.591 294.348 338.035 294.18 337.251 294.18H335.235V297.918ZM342.167 303V293.2H343.539L347.067 300.032L350.567 293.2H351.953V303H350.777V295.3L347.501 301.6H346.619L343.343 295.314V303H342.167Z" fill="#7C7C8D"/>
<path d="M387.848 303L391.74 294.208H386.364V293.2H392.944V294.082L389.094 303H387.848ZM398.206 303V293.2H401.426C402.191 293.2 402.821 293.326 403.316 293.578C403.811 293.83 404.175 294.171 404.408 294.6C404.651 295.029 404.772 295.515 404.772 296.056C404.772 296.588 404.655 297.069 404.422 297.498C404.189 297.927 403.825 298.273 403.33 298.534C402.835 298.786 402.201 298.912 401.426 298.912H399.382V303H398.206ZM399.382 297.918H401.398C402.182 297.918 402.737 297.755 403.064 297.428C403.4 297.092 403.568 296.635 403.568 296.056C403.568 295.468 403.4 295.011 403.064 294.684C402.737 294.348 402.182 294.18 401.398 294.18H399.382V297.918ZM406.313 303V293.2H407.685L411.213 300.032L414.713 293.2H416.099V303H414.923V295.3L411.647 301.6H410.765L407.489 295.314V303H406.313Z" fill="#7C7C8D"/>
<g filter="url(#filter0_d_208_1743)">
<rect x="147" y="131" width="58" height="31" rx="5" fill="#282B32" shape-rendering="crispEdges"/>
<path d="M156.44 143V137.46L155.29 137.73V136.75L156.98 136H157.77V143H156.44ZM161.51 143V136H164.1C164.66 136 165.123 136.093 165.49 136.28C165.857 136.467 166.13 136.723 166.31 137.05C166.49 137.377 166.58 137.743 166.58 138.15C166.58 138.537 166.493 138.893 166.32 139.22C166.147 139.54 165.877 139.8 165.51 140C165.143 140.193 164.673 140.29 164.1 140.29H162.79V143H161.51ZM162.79 139.25H164.02C164.467 139.25 164.787 139.153 164.98 138.96C165.18 138.76 165.28 138.49 165.28 138.15C165.28 137.803 165.18 137.533 164.98 137.34C164.787 137.14 164.467 137.04 164.02 137.04H162.79V139.25ZM167.584 143V136H169.104L171.334 140.44L173.534 136H175.054V143H173.774V138.17L171.824 142H170.814L168.864 138.17V143H167.584Z" fill="white"/>
<circle cx="158" cy="153.5" r="3" fill="#2884FF"/>
<path d="M165.44 157V151.46L164.29 151.73V150.75L165.98 150H166.77V157H165.44ZM170.637 157.12C170.124 157.12 169.681 157.03 169.307 156.85C168.941 156.67 168.651 156.423 168.437 156.11C168.231 155.79 168.111 155.43 168.077 155.03H169.327C169.387 155.317 169.534 155.557 169.767 155.75C170.001 155.937 170.291 156.03 170.637 156.03C171.011 156.03 171.314 155.893 171.547 155.62C171.787 155.347 171.907 155.007 171.907 154.6C171.907 154.18 171.787 153.847 171.547 153.6C171.314 153.353 171.017 153.23 170.657 153.23C170.357 153.23 170.097 153.303 169.877 153.45C169.657 153.597 169.501 153.78 169.407 154H168.177L168.777 150H172.657V151.12H169.737L169.417 152.74C169.564 152.58 169.764 152.45 170.017 152.35C170.271 152.243 170.554 152.19 170.867 152.19C171.367 152.19 171.784 152.303 172.117 152.53C172.451 152.75 172.704 153.043 172.877 153.41C173.051 153.77 173.137 154.163 173.137 154.59C173.137 155.077 173.031 155.51 172.817 155.89C172.611 156.27 172.317 156.57 171.937 156.79C171.564 157.01 171.131 157.12 170.637 157.12ZM174.641 157L177.281 151.09H173.831V150H178.601V150.91L175.971 157H174.641ZM179.552 157V149.8H180.832V154.05L182.592 152.04H184.112L182.082 154.3L184.442 157H182.842L180.832 154.51V157H179.552Z" fill="white"/>
</g>
<defs>
<filter id="filter0_d_208_1743" x="133" y="121" width="86" height="59" filterUnits="userSpaceOnUse" color-interpolation-filters="sRGB">
<feFlood flood-opacity="0" result="BackgroundImageFix"/>
<feColorMatrix in="SourceAlpha" type="matrix" values="0 0 0 0 0 0 0 0 0 0 0 0 0 0 0 0 0 0 127 0" result="hardAlpha"/>
<feOffset dy="4"/>
<feGaussianBlur stdDeviation="7"/>
<feComposite in2="hardAlpha" operator="out"/>
<feColorMatrix type="matrix" values="0 0 0 0 0 0 0 0 0 0 0 0 0 0 0 0 0 0 0.14 0"/>
<feBlend mode="normal" in2="BackgroundImageFix" result="effect1_dropShadow_208_1743"/>
<feBlend mode="normal" in="SourceGraphic" in2="effect1_dropShadow_208_1743" result="shape"/>
</filter>
</defs>
</svg>
