<svg width="18" height="20" viewBox="0 0 18 20" fill="none" xmlns="http://www.w3.org/2000/svg">
<path d="M10.667 1.1359L10.667 1.13591L10.6707 1.13919L16.667 6.38961C16.6676 6.39013 16.6682 6.39066 16.6687 6.39118C16.9315 6.62639 17.1415 6.91447 17.2847 7.23647C17.4283 7.55918 17.5017 7.90862 17.5001 8.26172V8.26404V17.0036C17.5001 17.6655 17.2369 18.3004 16.7681 18.7686C16.2993 19.2368 15.6633 19.5 15.0001 19.5H3.0001C2.33686 19.5 1.70091 19.2368 1.23212 18.7686C0.763342 18.3004 0.500095 17.6655 0.500095 17.0036V8.27403H0.500111L0.500079 8.27005C0.497258 7.91555 0.57008 7.56451 0.713716 7.24028C0.857033 6.91677 1.06758 6.62734 1.33142 6.39121L7.32948 1.13919L7.3295 1.13921L7.33321 1.1359C7.79153 0.726446 8.38498 0.5 9.0001 0.5C9.61521 0.5 10.2087 0.726446 10.667 1.1359ZM11.0001 18.5024H11.5001V18.0024V13.0084C11.5001 12.6107 11.3419 12.2294 11.0605 11.9483C10.7792 11.6673 10.3977 11.5096 10.0001 11.5096H8.0001C7.60246 11.5096 7.221 11.6673 6.93965 11.9483C6.65828 12.2294 6.5001 12.6107 6.5001 13.0084V18.0024V18.5024H7.0001H11.0001ZM12.5001 18.0024V18.5024H13.0001H15.0001C15.3977 18.5024 15.7792 18.3446 16.0605 18.0636C16.3419 17.7826 16.5001 17.4013 16.5001 17.0036V8.26404V8.26341C16.4998 8.05051 16.4542 7.84013 16.3662 7.64627C16.2782 7.45241 16.1499 7.27953 15.9899 7.13911L15.9891 7.13846L9.98987 1.89539C9.98979 1.89532 9.98972 1.89525 9.98964 1.89518C9.71591 1.6551 9.36418 1.52278 9.0001 1.52278C8.63614 1.52278 8.28452 1.65501 8.01084 1.89493C8.01066 1.89508 8.01049 1.89523 8.01032 1.89539L2.01107 7.13846L2.01032 7.13911C1.8503 7.27953 1.722 7.4524 1.63401 7.64627C1.54602 7.84013 1.50037 8.05051 1.5001 8.26341V8.26404V17.0036C1.5001 17.4013 1.65828 17.7826 1.93965 18.0636C2.221 18.3446 2.60246 18.5024 3.0001 18.5024H5.0001H5.5001V18.0024V13.0084C5.5001 12.3465 5.76334 11.7116 6.23212 11.2433C6.70091 10.7751 7.33686 10.512 8.0001 10.512H10.0001C10.6633 10.512 11.2993 10.7751 11.7681 11.2433C12.2368 11.7116 12.5001 12.3465 12.5001 13.0084V18.0024Z" fill="#7C7C8D" stroke="#7C7C8D"/>
</svg>
