<svg width="98" height="98" viewBox="0 0 98 98" fill="none" xmlns="http://www.w3.org/2000/svg">
<path d="M98 49C98 76.062 76.062 98 49 98C21.938 98 0 76.062 0 49C0 21.938 21.938 0 49 0C76.062 0 98 21.938 98 49ZM4.58375 49C4.58375 73.5304 24.4696 93.4163 49 93.4163C73.5304 93.4163 93.4163 73.5304 93.4163 49C93.4163 24.4696 73.5304 4.58375 49 4.58375C24.4696 4.58375 4.58375 24.4696 4.58375 49Z" fill="#1F2128"/>
<path d="M35.4639 4.29629C35.097 3.08484 35.7808 1.79984 37.0081 1.49005C45.8051 -0.730493 55.0625 -0.46827 63.7436 2.2707C73.1545 5.23995 81.4496 10.9815 87.543 18.7438C93.6364 26.5061 97.244 35.9274 97.8937 45.7742C98.5434 55.621 96.2047 65.4346 91.184 73.9301C86.1632 82.4257 78.6943 89.2073 69.7551 93.3872C60.8158 97.5672 50.8227 98.9506 41.0841 97.3564C31.3455 95.7622 22.3151 91.2646 15.1752 84.4526C8.58907 78.1688 3.89463 70.1857 1.59714 61.4085C1.27662 60.184 2.07252 58.9652 3.31068 58.7023C4.54883 58.4394 5.75984 59.232 6.08627 60.455C8.18814 68.3295 12.4212 75.4897 18.3394 81.1361C24.8114 87.311 32.997 91.3878 41.8246 92.8328C50.6522 94.2779 59.7105 93.0239 67.8135 89.235C75.9166 85.4461 82.6868 79.2989 87.2378 71.598C91.7889 63.8972 93.9088 55.0017 93.3199 46.076C92.731 37.1502 89.4608 28.6103 83.9375 21.5742C78.4141 14.538 70.895 9.33352 62.3644 6.64204C54.5637 4.18086 46.2498 3.92589 38.3379 5.88244C37.1091 6.1863 35.8307 5.50773 35.4639 4.29629Z" fill="#A162F7"/>
<path d="M89 49C89 71.0914 71.0914 89 49 89C26.9086 89 9 71.0914 9 49C9 26.9086 26.9086 9 49 9C71.0914 9 89 26.9086 89 49ZM13.5477 49C13.5477 68.5798 29.4202 84.4523 49 84.4523C68.5798 84.4523 84.4523 68.5798 84.4523 49C84.4523 29.4202 68.5798 13.5477 49 13.5477C29.4202 13.5477 13.5477 29.4202 13.5477 49Z" fill="#1F2128"/>
<path d="M38.0652 12.8874C37.7022 11.6885 38.3788 10.4156 39.5964 10.121C47.5332 8.2012 55.8881 8.75293 63.5298 11.7322C71.8776 14.9868 78.8909 20.9499 83.4458 28.6656C88.0006 36.3812 89.833 45.4027 88.6495 54.284C87.4659 63.1653 83.3347 71.392 76.9183 77.6456C70.5018 83.8992 62.1715 87.8174 53.2628 88.7722C44.354 89.7271 35.3826 87.6632 27.7866 82.9115C20.1906 78.1598 14.4098 70.9954 11.371 62.5667C8.58912 54.8509 8.25241 46.4847 10.3757 38.5998C10.7014 37.3902 11.9913 36.7465 13.1805 37.1403C14.3697 37.534 15.007 38.8159 14.6901 40.0278C12.8809 46.9455 13.2013 54.2684 15.6384 61.0281C18.3327 68.5009 23.4578 74.8528 30.1924 79.0657C36.9269 83.2785 44.8809 85.1083 52.7793 84.2617C60.6778 83.4152 68.0633 79.9413 73.7521 74.3969C79.4409 68.8526 83.1035 61.5588 84.1529 53.6848C85.2022 45.8107 83.5776 37.8123 79.5393 30.9717C75.5011 24.131 69.2831 18.8442 61.882 15.9587C55.1871 13.3486 47.8749 12.84 40.913 14.4707C39.6933 14.7564 38.4282 14.0863 38.0652 12.8874Z" fill="#FF6370"/>
<path d="M81 49C81 66.6731 66.6731 81 49 81C31.3269 81 17 66.6731 17 49C17 31.3269 31.3269 17 49 17C66.6731 17 81 31.3269 81 49ZM21.321 49C21.321 64.2867 33.7133 76.679 49 76.679C64.2867 76.679 76.679 64.2867 76.679 49C76.679 33.7133 64.2867 21.321 49 21.321C33.7133 21.321 21.321 33.7133 21.321 49Z" fill="#1F2128"/>
<path d="M40.3523 20.4407C40.0066 19.2989 40.6508 18.0854 41.8134 17.8174C45.9323 16.8681 50.2059 16.7427 54.3866 17.4566C59.2783 18.292 63.9087 20.2536 67.9119 23.1864C71.915 26.1192 75.1812 29.9429 77.4523 34.3553C79.7234 38.7676 80.9371 43.6477 80.9976 48.6099C81.0581 53.5721 79.9637 58.4803 77.8008 62.9467C75.638 67.4131 72.466 71.3153 68.5355 74.3449C64.6051 77.3744 60.0239 79.4483 55.154 80.4027C50.992 81.2183 46.7166 81.1971 42.5757 80.3485C41.407 80.109 40.7334 78.9115 41.0512 77.7616C41.369 76.6117 42.5579 75.9459 43.7291 76.1731C47.2215 76.8506 50.8188 76.8497 54.3231 76.1629C58.5355 75.3374 62.4982 73.5435 65.898 70.923C69.2978 68.3025 72.0415 64.9271 73.9124 61.0637C75.7832 57.2004 76.7299 52.9548 76.6775 48.6626C76.6252 44.3704 75.5753 40.1491 73.6109 36.3325C71.6464 32.5159 68.8212 29.2084 65.3585 26.6716C61.8958 24.1347 57.8906 22.4379 53.6593 21.7154C50.1393 21.1143 46.5431 21.2011 43.0682 21.9635C41.9029 22.2191 40.6981 21.5826 40.3523 20.4407Z" fill="#F6CC0D"/>
<path d="M36.752 56.566V55.18C35.588 55.048 34.64 54.64 33.908 53.956C33.176 53.272 32.798 52.354 32.774 51.202H35.204C35.228 51.682 35.372 52.102 35.636 52.462C35.912 52.822 36.284 53.068 36.752 53.2V49.402C36.644 49.366 36.53 49.33 36.41 49.294C36.302 49.258 36.188 49.222 36.068 49.186C35.096 48.85 34.352 48.418 33.836 47.89C33.332 47.362 33.08 46.66 33.08 45.784C33.068 44.752 33.404 43.924 34.088 43.3C34.772 42.664 35.66 42.298 36.752 42.202V40.744H37.958V42.22C39.038 42.328 39.908 42.706 40.568 43.354C41.24 43.99 41.594 44.812 41.63 45.82H39.164C39.152 45.472 39.038 45.154 38.822 44.866C38.618 44.566 38.33 44.356 37.958 44.236V47.584C38.054 47.62 38.15 47.656 38.246 47.692C38.342 47.716 38.438 47.746 38.534 47.782C39.158 47.998 39.728 48.25 40.244 48.538C40.76 48.826 41.174 49.21 41.486 49.69C41.798 50.158 41.954 50.764 41.954 51.508C41.954 52.132 41.798 52.714 41.486 53.254C41.186 53.794 40.736 54.244 40.136 54.604C39.548 54.952 38.822 55.15 37.958 55.198V56.566H36.752ZM35.492 45.622C35.492 46.006 35.606 46.318 35.834 46.558C36.062 46.786 36.368 46.984 36.752 47.152V44.164C36.38 44.236 36.074 44.398 35.834 44.65C35.606 44.902 35.492 45.226 35.492 45.622ZM39.506 51.67C39.506 51.19 39.362 50.812 39.074 50.536C38.786 50.26 38.414 50.026 37.958 49.834V53.254C38.438 53.182 38.816 53.008 39.092 52.732C39.368 52.456 39.506 52.102 39.506 51.67ZM48.4102 55.216C47.5462 55.216 46.7662 55.066 46.0702 54.766C45.3742 54.454 44.8162 54.016 44.3962 53.452C43.9882 52.888 43.7842 52.234 43.7842 51.49C43.7842 50.722 43.9822 50.05 44.3782 49.474C44.7862 48.898 45.3202 48.484 45.9802 48.232C45.4042 47.98 44.9482 47.62 44.6122 47.152C44.2762 46.672 44.1082 46.138 44.1082 45.55C44.1082 44.95 44.2702 44.398 44.5942 43.894C44.9182 43.378 45.3982 42.964 46.0342 42.652C46.6822 42.34 47.4742 42.184 48.4102 42.184C49.3462 42.184 50.1322 42.34 50.7682 42.652C51.4042 42.964 51.8842 43.378 52.2082 43.894C52.5322 44.398 52.6942 44.95 52.6942 45.55C52.6942 46.126 52.5202 46.66 52.1722 47.152C51.8362 47.632 51.3862 47.992 50.8222 48.232C51.4942 48.484 52.0282 48.898 52.4242 49.474C52.8202 50.05 53.0182 50.722 53.0182 51.49C53.0182 52.234 52.8142 52.888 52.4062 53.452C51.9982 54.016 51.4402 54.454 50.7322 54.766C50.0362 55.066 49.2622 55.216 48.4102 55.216ZM48.4102 47.548C49.0342 47.548 49.5262 47.386 49.8862 47.062C50.2462 46.738 50.4262 46.324 50.4262 45.82C50.4262 45.268 50.2462 44.836 49.8862 44.524C49.5382 44.212 49.0462 44.056 48.4102 44.056C47.7622 44.056 47.2642 44.212 46.9162 44.524C46.5682 44.836 46.3942 45.268 46.3942 45.82C46.3942 46.336 46.5682 46.756 46.9162 47.08C47.2762 47.392 47.7742 47.548 48.4102 47.548ZM48.4102 53.29C49.1782 53.29 49.7602 53.104 50.1562 52.732C50.5522 52.348 50.7502 51.868 50.7502 51.292C50.7502 50.656 50.5402 50.158 50.1202 49.798C49.7122 49.438 49.1422 49.258 48.4102 49.258C47.6782 49.258 47.0962 49.438 46.6642 49.798C46.2442 50.158 46.0342 50.656 46.0342 51.292C46.0342 51.868 46.2322 52.348 46.6282 52.732C47.0362 53.104 47.6302 53.29 48.4102 53.29ZM56.301 55V45.028L54.231 45.514V43.75L57.273 42.4H58.695V55H56.301ZM62.5061 55V45.028L60.4361 45.514V43.75L63.4781 42.4H64.9001V55H62.5061Z" fill="#242731"/>
</svg>
